<?xml version="1.0" standalone="no"?>
<!DOCTYPE svg PUBLIC "-//W3C//DTD SVG 20010904//EN"
 "http://www.w3.org/TR/2001/REC-SVG-20010904/DTD/svg10.dtd">
<svg version="1.0" xmlns="http://www.w3.org/2000/svg"
 width="640.000000pt" height="640.000000pt" viewBox="0 0 640.000000 640.000000"
 preserveAspectRatio="xMidYMid meet">
<metadata>
Created by potrace 1.11, written by Peter Selinger 2001-2013
</metadata>
<g transform="translate(0.000000,640.000000) scale(0.100000,-0.100000)"
fill="#000000" stroke="none">
<path d="M1550 5236 c-191 -44 -327 -120 -460 -256 -109 -111 -182 -244 -227
-412 -23 -86 -23 -307 0 -400 36 -146 111 -287 211 -395 l66 -70 -58 -22
c-146 -53 -260 -174 -296 -316 -14 -51 -16 -173 -16 -902 0 -578 3 -859 11
-895 32 -154 162 -293 323 -344 66 -22 546 -26 1887 -16 l965 7 75 37 c89 44
165 116 209 200 47 88 52 111 59 261 l6 137 170 -98 c94 -54 251 -144 350
-201 99 -57 221 -127 270 -156 384 -224 457 -265 475 -265 12 0 32 11 45 25
l25 24 0 1280 0 1280 -22 21 c-46 42 -42 44 -673 -325 -211 -124 -616 -356
-630 -361 -13 -5 -15 10 -15 108 0 168 -32 268 -119 370 -41 47 -135 112 -189
128 -20 6 -43 14 -51 16 -10 3 -3 17 26 47 115 120 190 253 230 406 20 76 25
121 25 216 1 239 -76 433 -240 607 -281 298 -718 364 -1077 163 -130 -72 -274
-219 -332 -337 -15 -31 -31 -57 -34 -57 -4 -1 -25 31 -48 69 -120 201 -324
358 -541 415 -85 22 -324 29 -400 11z m1014 -1283 c36 -70 76 -126 129 -182
26 -27 47 -52 47 -55 0 -3 -95 -6 -212 -6 l-212 0 46 48 c60 62 114 134 144
194 13 26 26 48 29 48 3 0 16 -21 29 -47z m1057 -697 c41 -17 94 -71 108 -109
7 -19 11 -246 11 -683 0 -623 -1 -657 -19 -692 -23 -46 -46 -67 -94 -87 -32
-13 -166 -15 -1107 -15 -888 0 -1076 2 -1103 14 -39 17 -92 71 -106 109 -15
39 -15 1315 0 1354 15 40 57 82 104 104 38 18 90 19 1106 19 900 0 1072 -2
1100 -14z"/>
<path d="M1439 3131 l-24 -19 -3 -629 c-2 -436 1 -636 8 -654 6 -15 22 -31 36
-37 27 -13 1877 -17 2039 -5 74 5 93 10 112 29 l23 23 -3 636 -2 637 -24 19
c-23 18 -54 19 -1081 19 -1027 0 -1058 -1 -1081 -19z"/>
</g>
</svg>
